<svg width="42" height="35" viewBox="0 0 42 35" fill="none" xmlns="http://www.w3.org/2000/svg">
<path fill-rule="evenodd" clip-rule="evenodd" d="M21.3909 0.00444348C21.7335 0.0218802 22.937 0.0829089 24.0703 0.126501C25.2035 0.178811 26.8287 0.274713 27.672 0.34446C28.5154 0.422925 30.1757 0.597293 31.3616 0.745505C32.6179 0.902436 33.6984 1.08552 33.9531 1.18142C34.1991 1.26861 34.5857 1.46913 34.8228 1.62606C35.06 1.78299 35.4114 2.11429 35.5871 2.34969C35.7716 2.5938 36 2.95997 36.0966 3.17793C36.1933 3.39589 36.2987 3.72719 36.3338 3.91899C36.369 4.1108 36.6149 6.1509 37.388 12.6374L20.9956 12.6548C11.9824 12.6635 4.61201 12.6635 4.60322 12.6548C4.59444 12.6461 4.82284 10.6932 5.10395 8.32177C5.39385 5.95038 5.68375 3.81437 5.75403 3.57026C5.81552 3.33486 6.03514 2.89023 6.2284 2.5938C6.43045 2.28866 6.75549 1.92249 6.95754 1.77427C7.16837 1.62606 7.5549 1.39938 7.81845 1.27733C8.1347 1.12911 8.67936 0.998338 9.39971 0.902436C10.0059 0.815252 11.2269 0.66704 12.123 0.571138C13.019 0.475236 14.3016 0.353179 14.978 0.300868C15.6545 0.23984 17.2357 0.152656 18.4919 0.0916272C19.7482 0.0218802 21.0483 -0.0129933 21.3909 0.00444348ZM7.57247 5.20931C7.5549 5.45343 7.60761 5.5842 7.77452 5.74985C7.91508 5.88935 8.09078 5.96781 8.27526 5.96781C8.51244 5.96781 8.69693 5.82832 9.50512 5.03495C10.3397 4.2067 10.4539 4.05849 10.4539 3.78822C10.4627 3.62257 10.3924 3.39589 10.3045 3.28255C10.2167 3.16921 10.0059 3.06459 9.82138 3.02972C9.49634 2.97741 9.46999 2.99485 8.5388 3.93643C7.70425 4.77339 7.59004 4.92161 7.57247 5.20931ZM10.6471 6.23808C7.56369 9.32439 7.5549 9.32439 7.5549 9.69928C7.5549 9.9957 7.59883 10.1003 7.80088 10.2398C7.93265 10.3444 8.15227 10.4142 8.30161 10.4142C8.53001 10.4142 9.00439 9.97826 11.7716 7.23198C14.8023 4.22414 14.978 4.03233 14.978 3.73591C14.978 3.50923 14.9165 3.36974 14.7321 3.21281C14.6003 3.09947 14.407 3.00356 14.2928 3.01228C14.1874 3.01228 14.0205 3.04716 13.9239 3.08203C13.8184 3.1169 12.3514 4.538 10.6471 6.23808ZM2.25769 9.71671C2.89898 9.71671 3.42606 9.74287 3.42606 9.78646C3.42606 9.82133 3.36457 10.3532 3.29429 10.9809C3.22401 11.6086 3.14495 12.245 3.07467 12.681H0V11.7917C0 11.0332 0.0351391 10.8327 0.20205 10.5101C0.325037 10.266 0.527086 10.048 0.746706 9.92595C1.07174 9.73415 1.20351 9.71671 2.25769 9.71671ZM39.7335 9.71671C40.7965 9.71671 40.9195 9.73415 41.2445 9.92595C41.4378 10.0393 41.6838 10.2834 41.7892 10.4665C41.9561 10.7629 41.9824 10.9373 41.9912 12.681H38.9165L38.8726 12.402C38.8463 12.245 38.7672 11.6086 38.6969 10.9809C38.6266 10.3532 38.5652 9.82133 38.5652 9.78646C38.5652 9.74287 39.0922 9.71671 39.7247 9.71671H39.7335ZM4.13763 14.1631H37.8712L39.3382 16.1073C40.1464 17.1709 40.8755 18.1735 41.1215 18.6095H37.6691C34.2782 18.6095 34.2167 18.6182 33.8389 18.81C33.6281 18.9146 33.3646 19.1238 33.2679 19.2633C33.101 19.5075 33.0835 19.6469 33.0835 21.007C33.0835 22.4455 33.0922 22.4979 33.3206 22.9251C33.4436 23.1692 33.7247 23.5266 33.9356 23.7184C34.1376 23.9189 34.489 24.1805 34.7086 24.2851C35.0952 24.4944 35.1479 24.4944 41.9561 24.5815V26.0637L39.3646 26.1073L39.1889 26.3514C39.0835 26.4821 39.0044 26.6914 39.0132 26.8309C39.0132 26.9617 39.1098 27.1709 39.224 27.3104C39.4348 27.5458 39.4436 27.5458 42 27.5894V28.4438C42 29.0802 41.9561 29.3766 41.8331 29.6382C41.7452 29.83 41.5959 30.0567 41.5081 30.1351C41.4202 30.2136 41.1918 30.3444 41.0073 30.4141C40.7174 30.5362 38.6354 30.5536 21.0044 30.5536C3.37335 30.5536 1.29136 30.5362 0.992679 30.4141C0.816984 30.3444 0.597365 30.2136 0.500732 30.1351C0.412884 30.0567 0.263543 29.8387 0.175695 29.6644C0.0439239 29.4028 0.00878477 29.1413 0.00878477 27.5894L1.29136 27.5719C2.56515 27.5458 2.57394 27.5458 2.78477 27.3104C2.89898 27.1709 2.99561 26.9617 2.99561 26.8309C3.00439 26.6914 2.92533 26.4821 2.64422 26.1073L0.0527086 26.0637V24.5815L6.90483 24.4944L7.34407 24.259C7.58126 24.1369 7.95022 23.8579 8.14348 23.6487C8.34553 23.4482 8.60908 23.0994 8.71449 22.8815C8.90776 22.5153 8.92533 22.3932 8.92533 21.007C8.92533 19.6469 8.90776 19.5075 8.74085 19.2633C8.64422 19.1238 8.38067 18.9146 8.16984 18.81C7.79209 18.6182 7.7306 18.6095 0.887262 18.6095L1.04539 18.3305C1.13324 18.1735 1.86237 17.1709 2.67057 16.1073L4.13763 14.1631ZM11.7452 21.9835C11.6574 22.0707 11.5081 22.2973 11.4202 22.4891C11.2709 22.7943 11.2533 23.0907 11.2533 25.3226C11.2533 27.5458 11.2709 27.8422 11.4202 28.1561C11.5081 28.3392 11.6574 28.5658 11.7452 28.653C11.8331 28.7402 12.0703 28.8623 12.2635 28.932C12.5622 29.0366 13.8624 29.0628 21.0044 29.0628C28.1464 29.0628 29.4466 29.0366 29.7452 28.932C29.9385 28.8623 30.1669 28.7402 30.2635 28.653C30.3514 28.5658 30.5007 28.3392 30.5886 28.1561C30.7379 27.8422 30.7467 27.5458 30.7467 25.3226C30.7467 23.0907 30.7379 22.7943 30.5886 22.4891C30.5007 22.2973 30.3514 22.0707 30.2635 21.9835C30.1669 21.8963 29.9385 21.7742 29.7452 21.7045C29.4466 21.5999 28.1464 21.5737 21.0044 21.5737C13.8624 21.5737 12.5622 21.5999 12.2635 21.7045C12.0703 21.7742 11.8331 21.8963 11.7452 21.9835ZM7.47584 20.0916V21.068C7.47584 21.9486 7.45827 22.0794 7.27379 22.3584C7.15959 22.524 6.93119 22.7507 6.76428 22.8553C6.46559 23.0558 6.44802 23.0558 0.00878477 23.0558V22.1404C0.00878477 21.6347 0.0527086 21.0157 0.105417 20.7629C0.149341 20.5101 0.210835 20.2572 0.228404 20.1962C0.263543 20.109 1.06296 20.0916 7.47584 20.0916ZM34.5329 20.0829L41.7628 20.1352L41.877 20.6147C41.9385 20.8762 41.9912 21.5301 42 23.0558H38.7672C35.5608 23.0558 35.5432 23.0558 35.2357 22.8553C35.0688 22.7507 34.8404 22.524 34.735 22.3584C34.5505 22.0794 34.5242 21.9486 34.5329 21.068V20.0829ZM2.29283 32.027H8.26647V33.2476C8.26647 34.4246 8.25769 34.4769 7.82723 34.9913L2.77599 35L2.29283 34.5554V32.027ZM33.7423 32.027H39.716V34.5554L39.2328 35L34.1816 34.9913L33.9619 34.7297C33.7423 34.4769 33.7423 34.4246 33.7423 33.2476V32.027ZM12.7467 23.0471H29.2621V27.5807H12.7467V23.0471Z" fill="#2684E5"/>
</svg>
