<svg width="64" height="43" viewBox="0 0 64 43" fill="none" xmlns="http://www.w3.org/2000/svg">
<path fill-rule="evenodd" clip-rule="evenodd" d="M34.0174 0.0144203C30.5156 0.0517845 29.1649 0.101603 28.2019 0.263515C27.5141 0.375608 26.401 0.624702 25.7257 0.811523C25.0503 0.998344 24.5126 1.18517 24.5126 1.23498C24.5126 1.29726 24.5376 1.33462 24.5751 1.33462C24.6126 1.33462 25.1879 1.44671 25.8632 1.58372C26.5261 1.72072 27.414 1.9449 27.8267 2.08191C28.5396 2.331 28.8148 2.34346 33.8924 2.331C37.1565 2.331 39.4452 2.36837 39.8329 2.45555C40.1831 2.53028 40.8709 2.79183 41.3712 3.05338C41.9965 3.36474 43.1471 4.24903 45.0231 5.81833C46.5238 7.08871 47.8245 8.25945 47.8995 8.43382C47.9871 8.60819 48.0121 8.89465 47.9746 9.08147C47.937 9.28074 47.7745 9.54229 47.6119 9.67929C47.3492 9.92839 47.1742 9.92839 42.7719 9.92839C40.2581 9.92839 38.1695 9.9533 38.107 9.99066C38.057 10.028 38.1695 10.2896 38.3571 10.576C38.5322 10.8749 38.8574 11.4728 39.0575 11.9211C39.2576 12.3695 39.5953 13.204 39.7954 13.7894C39.9955 14.3747 40.2706 15.3587 40.3957 15.9689C40.5333 16.5792 40.6833 17.4635 40.8334 18.7712H46.4613L46.6364 18.2481C46.7239 17.9492 46.9115 17.4884 47.0616 17.2144C47.1992 16.9404 47.5744 16.4298 47.8995 16.0935C48.2247 15.7447 48.8 15.3088 49.1627 15.1096C49.5379 14.9103 50.1257 14.6736 50.4633 14.574C50.8135 14.4868 51.4639 14.4121 51.9391 14.4121C52.4018 14.4121 53.1022 14.5117 53.4899 14.6363C53.8901 14.7608 54.5154 15.0473 54.8906 15.2839C55.2658 15.5206 55.741 15.9191 55.9411 16.1558C56.1538 16.3924 56.4539 16.8034 56.6165 17.0525C56.7666 17.314 56.9917 17.7998 57.2793 18.7712H58.655C59.4054 18.7712 60.1808 18.709 60.3809 18.6342C60.5685 18.572 60.8812 18.3602 61.0688 18.1734C61.2689 17.9866 61.5065 17.6877 61.6065 17.4884C61.7066 17.3016 61.7816 16.7909 61.7816 15.4085H60.4685C59.2178 15.4085 59.1303 15.396 58.8426 15.0971C58.6425 14.8978 58.53 14.6363 58.53 14.3747C58.5175 14.1007 58.63 13.8641 58.8676 13.6274C59.2053 13.2912 59.2553 13.2787 60.4935 13.2912C61.6941 13.2912 61.7816 13.2787 61.7816 13.0421C61.7816 12.9051 61.6316 12.6311 61.4315 12.4318C61.2439 12.245 60.8437 12.0083 60.531 11.9211C60.2183 11.8464 58.6425 11.3358 57.0292 10.8002C55.4159 10.2647 53.6525 9.64193 53.1272 9.40529C52.2768 9.0441 51.6765 8.59573 48.2622 5.69378C46.1111 3.87539 44.0726 2.16909 43.7224 1.90754C43.3722 1.64599 42.6343 1.21007 42.084 0.936071C41.4337 0.624702 40.6458 0.375608 39.8329 0.213696C38.7073 0.00196558 38.1195 -0.0229439 34.0174 0.0144203ZM40.3332 24.2513L40.058 25.1605C39.9079 25.6463 39.7453 26.1694 39.6828 26.2939C39.5828 26.5306 39.8204 26.5305 51.4639 26.4309C59.8306 26.3686 63.4075 26.2939 63.5575 26.1943C63.6826 26.1195 63.8452 25.9203 63.9202 25.7459C63.9953 25.5715 64.0203 25.2851 63.9828 25.0858C63.9452 24.899 63.7952 24.6374 63.6576 24.5004C63.4075 24.2513 63.2449 24.2513 40.3332 24.2513ZM7.69144 31.9733C7.6164 31.9733 5.92803 33.6048 3.92701 35.6101C0.887951 38.649 0.250126 39.3465 0.137569 39.7575C0.0625305 40.0315 0 40.4051 0 40.6044C0 40.7912 0.0875435 41.1524 0.2001 41.414C0.300152 41.6631 0.51276 42.0118 0.662834 42.1612C0.812912 42.3232 1.13808 42.5598 1.3757 42.6843C1.61332 42.7964 1.9635 42.9334 2.1511 42.9833C2.37621 43.0331 2.7514 42.9708 3.15161 42.8089C3.72691 42.5972 4.27719 42.099 11.2558 35.1492L10.2302 34.3272C9.65494 33.8788 8.87954 33.1689 8.50435 32.7455C8.12916 32.322 7.76648 31.9733 7.69144 31.9733ZM21.4485 3.40211C20.6856 3.43947 19.535 3.57647 18.8847 3.70102C18.2343 3.83802 17.1838 4.11203 16.571 4.33621C15.9582 4.54794 15.1077 4.89668 14.695 5.09595C14.2823 5.30768 13.4694 5.78096 12.8816 6.1546C12.2313 6.57807 11.2808 7.38762 10.4303 8.23454C9.5799 9.08147 8.76699 10.028 8.34177 10.6757C7.96658 11.261 7.45382 12.1578 7.19118 12.6684C6.92855 13.1791 6.56586 14.0758 6.37827 14.6612C6.17816 15.2466 5.92803 16.2305 5.80297 16.8408C5.64038 17.6379 5.57785 18.5222 5.57785 19.8922C5.57785 21.2373 5.64038 22.1465 5.79046 22.8813C5.91553 23.4667 6.16565 24.3883 6.34074 24.9363C6.51583 25.4844 6.8535 26.3562 7.09113 26.8668C7.32875 27.3775 7.89154 28.3614 8.35427 29.0464C8.84203 29.7812 9.66745 30.7776 10.3803 31.4751C11.0306 32.1227 12.1062 33.0195 12.7565 33.4678C13.4069 33.9038 14.3949 34.4767 14.9452 34.7258C15.4954 34.9873 16.3709 35.336 16.8836 35.5104C17.3964 35.6723 18.2468 35.909 18.7596 36.0211C19.2724 36.1331 20.4855 36.2577 21.4485 36.2951C22.6991 36.3324 23.5621 36.2951 24.45 36.1581C25.1379 36.0584 26.2134 35.8218 26.8262 35.6474C27.439 35.473 28.4896 35.0745 29.1399 34.7631C29.7903 34.4518 30.7783 33.8913 31.3285 33.5301C31.8788 33.1565 32.7793 32.4465 33.3171 31.9484C33.8673 31.4502 34.6552 30.5908 35.0805 30.0428C35.5057 29.4948 36.081 28.6603 36.3686 28.1746C36.6563 27.6888 37.0815 26.8544 37.3066 26.3064C37.5442 25.7584 37.8569 24.8865 38.007 24.3759C38.1445 23.8652 38.3446 22.8813 38.4572 22.1963C38.5572 21.5113 38.6448 20.4402 38.6448 19.8299C38.6448 19.2196 38.5572 18.1734 38.4572 17.5258C38.3696 16.8781 38.132 15.8319 37.9569 15.2217C37.7818 14.6114 37.3066 13.4282 36.9064 12.6062C36.5062 11.7841 35.8434 10.6632 35.4306 10.1152C35.0179 9.5672 34.2675 8.70782 33.7548 8.19718C33.242 7.69899 32.4916 7.02644 32.0789 6.72752C31.6662 6.41615 30.9659 5.94287 30.5156 5.68132C30.0654 5.41978 29.1899 4.98386 28.5771 4.70986C27.9643 4.44831 26.8638 4.07466 26.1384 3.9003C25.413 3.71348 24.375 3.52666 23.8247 3.46438C23.2744 3.38965 22.2114 3.3772 21.4485 3.40211ZM26.451 6.25424C27.0639 6.45352 28.0519 6.86452 28.6397 7.16344C29.2275 7.46235 30.0654 7.96054 30.5156 8.28436C30.9659 8.60819 31.7663 9.31811 32.3165 9.86611C32.8543 10.4141 33.6047 11.3109 33.9674 11.8589C34.3301 12.4069 34.8178 13.2787 35.0554 13.7894C35.2931 14.3 35.6307 15.1718 35.8058 15.7198C35.9809 16.2678 36.1935 17.1895 36.2686 17.7749C36.3686 18.4474 36.4061 19.4687 36.3561 20.5772C36.3061 21.8849 36.206 22.6073 35.9809 23.4418C35.8058 24.0521 35.5182 24.9239 35.3306 25.3723C35.143 25.8206 34.7553 26.5679 34.4802 27.0536C34.205 27.5394 33.8173 28.0749 33.6172 28.2742C33.3921 28.4859 33.1295 28.6105 32.8793 28.6105C32.6167 28.6105 32.3791 28.4984 32.129 28.2368C31.9038 28.0127 31.7663 27.7262 31.7663 27.5269C31.7663 27.3277 31.8413 27.0661 31.9539 26.9291C32.0539 26.7921 32.1415 26.6426 32.1415 26.5928C32.1415 26.5305 27.8017 26.4932 22.499 26.4932H12.8566C12.2938 25.9203 12.1312 25.6338 12.1312 25.4968C12.1312 25.3598 12.2062 25.0983 12.3063 24.9114C12.3938 24.7122 12.5814 24.5129 12.7065 24.4506C12.8316 24.3883 14.2448 24.3136 15.8206 24.2887L18.6971 24.2264C17.7716 23.2799 17.3464 22.6571 17.1338 22.2337C16.9337 21.7978 16.7586 21.3494 16.7586 21.2373C16.7586 21.0629 16.621 21.0006 16.0957 20.9508C15.7456 20.9135 15.1077 20.7266 14.695 20.5274C14.2823 20.3281 13.707 19.9295 13.4194 19.6306C13.1317 19.3317 12.744 18.7463 12.5564 18.3353C12.3188 17.7998 12.2062 17.314 12.1562 16.5917C12.1187 16.0437 12.1312 15.4458 12.1812 15.259C12.2188 15.0597 12.3813 14.7982 12.5314 14.6612C12.719 14.4993 12.9941 14.4121 13.2818 14.4121C13.657 14.4121 13.8196 14.4993 14.0697 14.7857C14.3448 15.1096 14.3824 15.2839 14.3824 16.0935C14.3824 16.6041 14.4574 17.2144 14.5449 17.4386C14.645 17.6503 14.9201 18.024 15.1703 18.2481C15.4454 18.4848 15.8331 18.6716 16.0957 18.7214C16.3584 18.7588 16.6085 18.7463 16.646 18.6841C16.696 18.6342 16.7961 18.3602 16.8836 18.0862C16.9712 17.8122 17.1713 17.3639 17.3339 17.0899C17.484 16.8159 17.9342 16.2928 18.3094 15.944C18.6971 15.5828 19.3849 15.1096 19.8477 14.8854C20.523 14.574 20.9107 14.4744 21.6986 14.437C22.2614 14.3996 22.9743 14.437 23.3244 14.5242C23.6621 14.6114 24.2249 14.8231 24.5751 14.9975C24.9128 15.1718 25.413 15.4832 25.6756 15.7074C25.9383 15.9191 26.3635 16.3924 26.6136 16.766C26.8638 17.1397 27.1764 17.7251 27.289 18.0738L27.5016 18.709L34.1425 18.7712C34.0299 17.6628 33.8548 16.8906 33.6797 16.3426C33.5047 15.7946 33.1545 14.9227 32.8918 14.4121C32.6292 13.9014 32.154 13.1168 31.8163 12.6684C31.4911 12.2201 30.8783 11.535 30.4656 11.1365C30.0404 10.7379 29.34 10.165 28.8898 9.86611C28.4396 9.5672 27.6517 9.13129 27.1389 8.88219C26.6261 8.64555 25.7257 8.32173 25.1379 8.15982C24.2249 7.91072 23.7872 7.87336 22.0738 7.87336C20.3854 7.87336 19.9102 7.92318 19.0347 8.15982C18.472 8.30927 17.634 8.60819 17.1588 8.81992C16.696 9.01919 15.9707 9.41774 15.533 9.69175C15.0827 9.97821 14.6075 10.1775 14.3824 10.1775C14.1698 10.1775 13.8571 10.0529 13.657 9.87857C13.4069 9.65438 13.3193 9.46756 13.3193 9.11883C13.3193 8.73273 13.4069 8.58328 13.8196 8.22209C14.0947 7.98545 14.9952 7.46235 15.8206 7.0638C16.7836 6.59052 17.7966 6.21688 18.6345 6.00515C19.6225 5.75605 20.3604 5.66887 21.6361 5.63151C22.6866 5.59414 23.7121 5.64396 24.325 5.7436C24.8752 5.83078 25.8257 6.06742 26.451 6.25424ZM12.1312 11.5226C12.2688 11.7094 12.3938 12.0083 12.3813 12.2076C12.3813 12.3944 12.2188 12.7805 12.0187 13.0794C11.8311 13.3659 11.4684 14.0011 11.2307 14.4744C10.9931 14.9601 10.668 15.7074 10.5304 16.1558C10.3928 16.6041 10.2052 17.3016 10.1177 17.7126C10.0301 18.1236 9.9676 19.1075 9.9676 19.8922C9.98011 20.7391 10.0677 21.723 10.1927 22.3208C10.3053 22.8689 10.5679 23.7407 10.768 24.2513C10.9681 24.762 11.4183 25.6587 11.781 26.2441C12.1562 26.8419 12.8691 27.7387 13.4444 28.3116C13.9947 28.8596 14.7826 29.5446 15.1953 29.8186C15.608 30.0926 16.2833 30.4912 16.696 30.6904C17.1088 30.9022 17.9217 31.226 18.5095 31.4004C19.0973 31.5872 20.1353 31.7989 20.8232 31.8861C21.7611 31.9857 22.3865 31.9857 23.3244 31.8736C24.0123 31.7989 25.0503 31.5872 25.6381 31.4004C26.2259 31.226 27.0388 30.9022 27.4516 30.6904C27.8643 30.4912 28.4271 30.1673 28.7022 29.9805C28.9773 29.7937 29.34 29.5944 29.5151 29.557C29.7027 29.4948 29.9778 29.5321 30.1905 29.6318C30.3906 29.719 30.6282 29.9431 30.7157 30.1424C30.8158 30.3292 30.8658 30.6531 30.8283 30.8523C30.7908 31.1139 30.6032 31.3505 30.228 31.6121C29.9403 31.8238 29.34 32.1975 28.8898 32.4465C28.4396 32.6956 27.5641 33.0693 26.9513 33.2935C26.326 33.5177 25.3505 33.7792 24.7627 33.8913C24.1624 34.0158 23.0493 34.103 22.1989 34.103C21.3734 34.103 20.3354 34.0408 19.8852 33.9785C19.435 33.9038 18.647 33.7294 18.1343 33.5924C17.6215 33.4429 16.6085 33.0444 15.8831 32.7081C15.1578 32.3594 14.2073 31.8238 13.757 31.5C13.3068 31.1886 12.4939 30.4787 11.9436 29.9182C11.3933 29.3702 10.6304 28.4735 10.2552 27.9255C9.88006 27.3775 9.36729 26.4807 9.11716 25.9327C8.85453 25.3847 8.50435 24.4631 8.34177 23.8777C8.16668 23.2923 7.95407 22.3458 7.87903 21.7604C7.77898 21.1252 7.74146 20.1288 7.79148 19.2694C7.8165 18.4848 7.94157 17.3888 8.06663 16.8408C8.17919 16.2928 8.46683 15.3337 8.71696 14.7235C8.96709 14.1132 9.39231 13.2164 9.66745 12.7307C9.95509 12.2574 10.3303 11.7094 10.5054 11.5226C10.6805 11.3482 10.9306 11.1739 11.0682 11.1365C11.2057 11.1116 11.4434 11.1116 11.5934 11.1365C11.7435 11.1614 11.9936 11.3358 12.1312 11.5226ZM35.9184 4.46076C34.3301 4.44831 33.0169 4.48567 33.0169 4.54794C33.0044 4.59776 33.3296 4.89668 33.7298 5.20804C34.13 5.53187 34.9054 6.24179 36.4562 7.81108H40.0205C41.984 7.81108 43.6223 7.78617 43.6724 7.74881C43.7349 7.71145 43.1971 7.18835 42.4843 6.59052C41.7839 5.98024 40.971 5.33259 40.6708 5.15823C40.3832 4.9714 39.8454 4.74722 39.4827 4.64758C39.0075 4.51058 38.0445 4.46076 35.9184 4.46076ZM51.5889 16.6041C51.2387 16.6415 50.801 16.7411 50.5884 16.8283C50.3758 16.9155 49.9756 17.202 49.6754 17.476C49.3753 17.7375 49.0126 18.2108 48.875 18.5222C48.6999 18.8958 48.6124 19.3317 48.6124 19.8299C48.6124 20.3779 48.6874 20.764 48.9251 21.2622C49.1001 21.6358 49.4628 22.134 49.7255 22.3582C50.0006 22.5824 50.4884 22.8439 50.8385 22.956C51.2387 23.093 51.714 23.1429 52.1517 23.1055C52.5269 23.0806 53.0397 22.956 53.2773 22.8439C53.5149 22.7319 53.9276 22.4454 54.1777 22.1963C54.4404 21.9597 54.7405 21.5736 54.8656 21.3618C54.9782 21.1376 55.0907 20.5647 55.1282 20.079C55.1657 19.4189 55.1157 19.0702 54.9531 18.6467C54.8281 18.3353 54.5779 17.9243 54.4029 17.7251C54.2278 17.5258 53.9276 17.2518 53.715 17.1023C53.5024 16.9653 53.0897 16.7785 52.777 16.6913C52.4644 16.6041 51.9391 16.5668 51.5889 16.6041ZM52.9396 19.5933C53.0021 19.8299 52.9771 20.079 52.8771 20.3032C52.7895 20.49 52.5269 20.7391 52.3018 20.8387C51.9516 20.9882 51.8516 20.9882 51.4639 20.8263C51.2262 20.7266 50.9761 20.5025 50.9011 20.3281C50.826 20.1537 50.776 19.9046 50.776 19.7676C50.776 19.6306 50.9386 19.3566 51.1512 19.1449C51.3888 18.9083 51.6514 18.7712 51.8766 18.7712C52.0767 18.7712 52.3768 18.8709 52.5394 18.9954C52.702 19.12 52.8896 19.394 52.9396 19.5933ZM22.1363 16.5419C21.9612 16.5294 21.5485 16.6041 21.1984 16.7162C20.8607 16.8159 20.3479 17.0525 20.0728 17.2518C19.7976 17.4635 19.4224 17.8994 19.2348 18.2232C19.0472 18.5595 18.8597 19.12 18.8096 19.4563C18.7513 19.8714 18.7888 20.3073 18.9222 20.764C19.0472 21.175 19.3099 21.6732 19.5975 21.997C19.8602 22.3084 20.3479 22.682 20.6981 22.8439C21.1358 23.0432 21.5485 23.1304 22.0738 23.1304C22.5616 23.1304 23.0243 23.0308 23.387 22.8689C23.6996 22.7319 24.1374 22.4329 24.3625 22.2212C24.6001 21.997 24.9002 21.5985 25.0378 21.3245C25.1754 21.0505 25.3255 20.5149 25.363 20.1413C25.4005 19.7427 25.3505 19.2445 25.2629 18.9581C25.1754 18.6841 24.9378 18.2232 24.7502 17.9368C24.5501 17.6379 24.1249 17.2518 23.7997 17.065C23.462 16.8781 23.0243 16.6913 22.8242 16.6415C22.6241 16.5917 22.3114 16.5543 22.1363 16.5419ZM23.1368 19.8548C23.1368 20.1911 23.0618 20.4153 22.8617 20.6145C22.6616 20.8138 22.424 20.901 22.0738 20.901C21.6861 20.9135 21.511 20.8387 21.2984 20.5896C21.1233 20.3904 21.0108 20.1039 21.0108 19.8673C21.0108 19.6431 21.0858 19.3691 21.1733 19.257C21.2609 19.1449 21.4485 18.9954 21.6111 18.9207C21.7611 18.8335 22.0238 18.7712 22.1989 18.7712C22.374 18.7712 22.6616 18.9083 22.8242 19.0826C23.0243 19.2819 23.1243 19.531 23.1368 19.8548ZM34.18 21.0131H30.8408C27.7892 21.0131 27.5141 21.0256 27.439 21.2373C27.4015 21.3494 27.1764 21.8351 26.9513 22.3208C26.6887 22.8689 26.326 23.392 25.388 24.2513L33.4546 24.1891L33.7423 23.1927C33.8924 22.6447 34.0549 21.9348 34.105 21.6109L34.18 21.0131Z" fill="#2684E5"/>
</svg>
