<svg width="17" height="19" viewBox="0 0 17 19" fill="none" xmlns="http://www.w3.org/2000/svg">
<path d="M5.18375 0.193296C4.29567 0.238189 3.6892 0.390037 3.15902 0.613248C2.61032 0.842362 2.14524 1.14981 1.6825 1.64739C1.21977 2.14496 0.934813 2.64361 0.722475 3.2324C0.516981 3.8017 0.377759 4.45202 0.33853 5.40406C0.299301 6.35611 0.29062 6.66213 0.29496 9.09063C0.299301 11.5191 0.309317 11.8235 0.352385 12.7775C0.394786 13.7289 0.536011 14.3785 0.744343 14.9467C0.958518 15.5346 1.24514 16.0327 1.70971 16.5287C2.17429 17.0246 2.63936 17.3292 3.19024 17.5571C3.72109 17.7769 4.32822 17.9268 5.21664 17.9685C6.10505 18.0101 6.39101 18.0198 8.65695 18.0151C10.9229 18.0105 11.2082 17.9998 12.0984 17.9545C12.9887 17.9093 13.5918 17.7569 14.1223 17.5347C14.671 17.3047 15.1363 16.9982 15.5988 16.5002C16.0614 16.0023 16.3462 15.5033 16.5584 14.9142C16.764 14.3454 16.9038 13.6949 16.9423 12.7437C16.9812 11.7892 16.9904 11.4844 16.9861 9.05629C16.9817 6.62815 16.9715 6.32374 16.9293 5.37008C16.8871 4.41643 16.7457 3.76879 16.5375 3.20021C16.323 2.61231 16.0367 2.11456 15.5723 1.61824C15.1079 1.12191 14.6418 0.816964 14.0921 0.590176C13.5609 0.370005 12.9541 0.219946 12.0657 0.178809C11.1773 0.137672 10.8913 0.12712 8.62457 0.13177C6.35779 0.13642 6.074 0.146794 5.18375 0.193296ZM5.28124 16.3597C4.46744 16.3217 4.02557 16.1769 3.7311 16.0556C3.34115 15.8946 3.06337 15.7 2.7699 15.3887C2.47644 15.0773 2.29615 14.7786 2.14391 14.3617C2.02956 14.0462 1.89184 13.5733 1.85378 12.7014C1.81238 11.759 1.8037 11.476 1.79886 9.08848C1.79402 6.70094 1.80253 6.41835 1.84109 5.47561C1.87581 4.6044 2.01186 4.13044 2.12488 3.81511C2.27512 3.39677 2.45607 3.09969 2.74737 2.78544C3.03867 2.4712 3.31661 2.27767 3.70606 2.11456C4.0002 1.99151 4.44157 1.8452 5.25503 1.80371C6.13527 1.75899 6.39902 1.75005 8.62707 1.74487C10.8551 1.73968 11.1195 1.74862 12.0001 1.79012C12.8132 1.82803 13.2558 1.97237 13.5497 2.09417C13.9399 2.25514 14.2175 2.44848 14.5108 2.76112C14.8041 3.07376 14.9849 3.37048 15.1371 3.78864C15.2521 4.10289 15.3887 4.57561 15.4271 5.44771C15.469 6.39081 15.4785 6.67358 15.4825 9.06058C15.4865 11.4476 15.4787 11.7311 15.4401 12.6735C15.4045 13.5454 15.2697 14.019 15.1563 14.3348C15.0061 14.7525 14.8249 15.0503 14.5335 15.3643C14.242 15.6784 13.9644 15.8719 13.5748 16.035C13.281 16.1579 12.8391 16.3046 12.0263 16.3461C11.1461 16.3904 10.8823 16.3997 8.65345 16.4049C6.42456 16.4101 6.16164 16.4004 5.28141 16.3597M12.0856 4.29391C12.0859 4.50617 12.145 4.71356 12.2553 4.88984C12.3657 5.06613 12.5223 5.2034 12.7055 5.28428C12.8887 5.36517 13.0901 5.38604 13.2843 5.34425C13.4786 5.30247 13.6569 5.19991 13.7967 5.04955C13.9365 4.89918 14.0316 4.70776 14.0699 4.4995C14.1082 4.29124 14.088 4.0755 14.0118 3.87955C13.9356 3.6836 13.8069 3.51626 13.642 3.39868C13.4771 3.2811 13.2833 3.21857 13.0852 3.21899C12.8196 3.21956 12.5651 3.33312 12.3776 3.53469C12.1902 3.73627 12.0851 4.00936 12.0856 4.29391ZM4.35493 9.0824C4.3596 11.6186 6.282 13.6699 8.64861 13.665C11.0152 13.6602 12.9311 11.6007 12.9266 9.06452C12.9221 6.52835 10.9992 4.47652 8.63225 4.48153C6.26531 4.48654 4.35042 6.54659 4.35493 9.0824ZM5.85833 9.07918C5.85724 8.4896 6.01935 7.91291 6.32416 7.42205C6.62898 6.93118 7.0628 6.54818 7.57077 6.32148C8.07875 6.09478 8.63806 6.03456 9.17798 6.14844C9.71789 6.26232 10.2142 6.54517 10.604 6.96124C10.9939 7.37732 11.2599 7.90791 11.3683 8.48594C11.4767 9.06396 11.4227 9.66345 11.2132 10.2086C11.0036 10.7537 10.6478 11.2201 10.1909 11.5486C9.73398 11.8771 9.19638 12.0531 8.6461 12.0543C8.28072 12.0551 7.91876 11.9788 7.5809 11.8297C7.24304 11.6806 6.93591 11.4617 6.67703 11.1854C6.41815 10.9092 6.2126 10.581 6.07213 10.2196C5.93166 9.85817 5.859 9.47066 5.85833 9.07918Z" fill="#989898"/>
</svg>
