<svg width="53" height="54" viewBox="0 0 53 54" fill="none" xmlns="http://www.w3.org/2000/svg">
<path fill-rule="evenodd" clip-rule="evenodd" d="M41.1411 0.00144593C42.3979 -0.00911304 42.7631 0.0331228 43.8265 0.297097C44.5032 0.455481 45.47 0.77225 45.9749 0.98343C46.4797 1.19461 47.2961 1.63809 47.801 1.97597C48.3058 2.3033 49.1007 2.9474 49.5841 3.42255C50.0568 3.88715 50.7442 4.7213 51.1094 5.27037C51.4854 5.81944 51.9366 6.63248 52.1192 7.06539C52.3018 7.49831 52.5703 8.31135 52.7207 8.86042C52.957 9.73681 53 10.0747 53 11.6058C53 13.0734 52.9678 13.4958 52.7529 14.2983C52.624 14.8157 52.3662 15.6076 52.1836 16.0405C51.9903 16.4734 51.6143 17.2126 51.335 17.6772C51.0557 18.1418 50.5187 18.8809 50.1319 19.3138C49.7452 19.7467 49.09 20.3697 48.6711 20.6865C48.2521 21.0032 47.6076 21.4467 47.2424 21.6579C46.8664 21.8796 46.5012 22.0908 46.4153 22.133C46.2864 22.207 46.2971 22.3231 46.4475 22.9038C46.5442 23.284 46.6838 24.0653 46.7483 24.6461C46.845 25.4486 46.845 25.9659 46.759 26.8107C46.6838 27.4231 46.5012 28.3523 46.3508 28.8697C46.1897 29.3871 45.8675 30.2001 45.6311 30.6647C45.3948 31.1293 44.9974 31.7945 44.7396 32.1429C44.4925 32.4914 44.0306 33.051 43.7084 33.3995C43.3861 33.7373 42.7416 34.3075 42.269 34.656C41.7963 35.0044 40.9692 35.5007 40.4428 35.7435C39.9165 35.997 39.0679 36.3137 38.563 36.4616C38.0582 36.5988 37.1451 36.7678 36.5221 36.8311C35.8991 36.8945 35.1042 36.9262 34.7497 36.8945C34.3952 36.8522 33.7185 36.7572 33.2458 36.6727C32.6658 36.5671 32.3006 36.546 32.118 36.6094C31.9353 36.6727 29.8085 39.3969 25.5762 44.9826C22.1281 49.5336 19.1956 53.3665 19.0774 53.4932C18.8733 53.6938 18.6585 53.736 17.1869 53.8627C16.2738 53.9366 15.1674 54 13.9321 54L13.4165 51.7298C13.1265 50.4839 12.9224 49.3646 12.9439 49.2485C12.9761 49.1323 13.105 48.9317 13.2446 48.805C13.3843 48.6783 14.018 48.4249 14.77 48.2031C15.7045 47.9286 16.1449 47.7385 16.3597 47.5274C16.5209 47.369 16.7035 47.1261 16.7679 46.9783C16.8431 46.8093 16.8539 46.4187 16.8002 45.8696C16.7465 45.405 16.7035 44.9615 16.7035 44.8771C16.7035 44.7926 16.8216 44.687 16.972 44.6448C17.1224 44.6025 17.5951 44.4653 18.0247 44.3491C18.5403 44.2013 18.927 44.0112 19.1848 43.7895C19.3997 43.5889 19.6038 43.2826 19.6575 43.0715C19.7112 42.8392 19.7004 42.3851 19.6253 41.8783C19.5501 41.4243 19.5178 41.0336 19.5501 41.023C19.5823 41.0019 20.0872 40.8435 20.6779 40.664C21.5266 40.4106 21.8166 40.2733 22.0851 39.9883C22.2677 39.7982 22.4503 39.492 22.4933 39.323C22.5363 39.1541 22.5148 38.6261 22.4503 38.1616C22.3859 37.697 22.3107 37.2218 22.2892 37.1057C22.2463 36.9578 22.7081 36.2821 23.879 34.7299C24.7921 33.5367 25.5869 32.4597 25.6514 32.333C25.7266 32.1957 25.7803 31.9951 25.7803 31.879C25.7803 31.7628 25.5869 31.2982 25.3614 30.8547C25.1358 30.4007 24.8243 29.651 24.6739 29.1864C24.5235 28.7218 24.3516 27.9827 24.2764 27.5498C24.1905 27.0641 24.169 26.2405 24.2013 25.3852C24.2335 24.4982 24.3302 23.7169 24.4805 23.1678C24.5987 22.7032 24.835 22.0169 24.9854 21.6368C25.1465 21.2566 25.4903 20.5914 25.7481 20.1585C26.0059 19.7256 26.5 19.0393 26.833 18.6275C27.1767 18.2262 27.8642 17.5716 28.3691 17.1703C28.8847 16.7585 29.7655 16.2095 30.453 15.8716C31.1942 15.5126 32.032 15.1958 32.7088 15.0269C33.3855 14.8579 34.2341 14.7418 35.0182 14.6995C35.8991 14.6679 36.5543 14.6995 37.3062 14.8157C37.8756 14.9107 38.8208 15.1536 39.3902 15.3542C39.9702 15.5548 40.7758 15.9244 41.1948 16.1672C41.6137 16.3995 42.2367 16.8219 42.5912 17.0964C42.9457 17.3709 43.5257 17.8989 43.8695 18.2685C44.224 18.638 44.7288 19.2821 45.4915 20.4647L46.0823 20.1585C46.4045 20.0001 47.0276 19.5883 47.468 19.2399C47.9084 18.902 48.5314 18.3001 48.8644 17.8883C49.1974 17.4871 49.6486 16.843 49.8634 16.4629C50.0782 16.0828 50.3897 15.4492 50.5401 15.0374C50.7013 14.6362 50.8946 13.9498 50.9805 13.538C51.0665 13.1157 51.1309 12.2498 51.1309 11.6058C51.1309 10.9722 51.0557 10.1275 50.9698 9.73681C50.8946 9.33557 50.7227 8.75483 50.6153 8.43806C50.5079 8.12129 50.2071 7.47719 49.9601 7.0126C49.7238 6.54801 49.2619 5.86167 48.9503 5.48155C48.6388 5.10143 48.0373 4.51012 47.6184 4.16168C47.1887 3.81323 46.469 3.32752 46.0071 3.08466C45.5452 2.84181 44.8792 2.5356 44.5247 2.41945C44.1702 2.29274 43.558 2.1238 43.1605 2.04989C42.7523 1.96541 41.9037 1.8915 41.2485 1.8915C40.5932 1.8915 39.7124 1.96541 39.2827 2.04989C38.8638 2.13436 38.1763 2.32442 37.7574 2.4828C37.3385 2.63063 36.694 2.92628 36.3073 3.13746C35.9206 3.34864 35.3942 3.69708 35.1257 3.90826C34.8571 4.11944 34.3737 4.56292 34.0515 4.89025C33.7292 5.22813 33.2996 5.72441 33.1062 5.98838C32.9021 6.26291 32.6013 6.75918 32.4295 7.09707C32.2576 7.4244 32.118 7.72005 32.118 7.75173C32.118 7.7834 32.2469 7.80452 32.4187 7.80452C32.5799 7.80452 33.1169 7.91011 33.6218 8.02626C34.1267 8.15297 34.9216 8.41694 35.3942 8.61756C35.8668 8.81818 36.6617 9.2511 37.1666 9.57843C37.6715 9.90576 38.4341 10.5287 38.8638 10.9405C39.2827 11.3629 39.9272 12.1548 40.2817 12.6933C40.6362 13.2213 40.9155 13.6753 40.9047 13.6964C40.8833 13.7175 40.3462 13.5697 39.6909 13.3691C39.0357 13.1685 38.1763 12.9362 37.7574 12.8623C37.317 12.7778 36.3502 12.7144 35.3942 12.725C34.2663 12.725 33.5144 12.7884 32.8699 12.9151C32.365 13.0207 31.5486 13.2529 31.0438 13.4219C30.5389 13.6014 29.8192 13.897 29.4325 14.0871C29.0458 14.2877 28.455 14.6256 28.122 14.8474C27.789 15.0691 27.1875 15.5126 26.8008 15.8293C26.4141 16.1461 25.791 16.7585 25.4258 17.1809C25.0606 17.6032 24.4805 18.3846 24.1368 18.9231C23.7931 19.4511 23.3312 20.3697 23.0949 20.9504C22.8693 21.5312 22.5792 22.492 22.4611 23.0939C22.3322 23.6852 22.2248 24.6778 22.214 25.3113C22.1925 25.9343 22.214 26.8423 22.3429 28.2361L13.6313 33.3572C8.8405 36.1765 4.84455 38.4889 4.74787 38.51C4.6512 38.5311 3.53405 38.2038 2.288 37.8025C1.03121 37.3907 0 37.0423 0 37.0317C0 37.0106 0.171869 36.0286 0.375963 34.8355C0.580057 33.6423 0.805634 32.5336 0.880827 32.3647C0.956019 32.1957 1.14937 31.9951 1.3105 31.9212C1.54682 31.8051 1.80462 31.7945 2.55655 31.879C3.07215 31.9318 3.74889 31.9846 4.0604 31.9846C4.36117 31.9846 4.76936 31.9106 4.94122 31.8262C5.11309 31.7417 5.34941 31.5622 5.45683 31.4355C5.56425 31.2982 5.73612 30.8336 5.84353 30.4007C5.95095 29.9678 6.06911 29.5666 6.11208 29.5243C6.14431 29.4715 6.64917 29.4821 7.22923 29.5454C7.79854 29.6088 8.43231 29.6299 8.62566 29.5877C8.80827 29.5454 9.14126 29.3448 9.3561 29.1336C9.6891 28.8169 9.78577 28.6268 10.151 27.0007L10.4732 27.0641C10.6559 27.0958 11.2037 27.1486 11.7086 27.1908C12.4283 27.2436 12.6861 27.2225 12.9439 27.0958C13.1265 27.0113 13.3735 26.8212 13.5024 26.684C13.6528 26.5361 13.8569 26.0293 14.351 24.2237L16.8216 22.7666C18.1751 21.9747 19.3245 21.2672 19.3889 21.2038C19.4534 21.1405 19.4964 20.2852 19.5071 19.1237C19.5178 17.3604 19.5393 17.0436 19.7864 16.1461C19.9368 15.597 20.2483 14.7418 20.4846 14.2455C20.7102 13.7492 21.1398 12.989 21.4299 12.5561C21.7306 12.1231 22.3107 11.4368 22.7189 11.025C23.1271 10.6238 23.7823 10.0641 24.169 9.78961C24.5557 9.51507 25.3506 9.0716 25.9414 8.79706C26.5322 8.52253 27.4775 8.1952 28.0361 8.05794C28.5947 7.93123 29.2929 7.7834 30.0878 7.64614L30.4315 6.85422C30.6248 6.4213 31.0223 5.70329 31.3123 5.27037C31.6024 4.83745 32.2576 4.05609 32.7625 3.54926C33.2673 3.03187 34.0407 2.36665 34.4812 2.071C34.9216 1.77535 35.7272 1.33188 36.2535 1.08902C36.7799 0.846163 37.6285 0.539953 38.1334 0.413246C38.6382 0.286538 39.1968 0.149271 39.3687 0.0964766C39.5405 0.0542408 40.3462 0.0120049 41.1411 0.00144593ZM36.5221 18.6803C36.2858 18.7964 35.8776 19.1026 35.609 19.3666C35.3405 19.6306 35.0075 20.0952 34.8571 20.4014C34.7067 20.7076 34.5563 21.2566 34.5241 21.6368C34.4704 22.1436 34.5026 22.492 34.6423 22.9566C34.7497 23.3051 34.9323 23.7591 35.0719 23.9597C35.2009 24.1604 35.5124 24.5088 35.7594 24.7305C35.9957 24.9417 36.3825 25.2163 36.5973 25.3218C36.8229 25.4274 37.2955 25.5753 37.65 25.6386C38.1119 25.7231 38.4664 25.7231 38.8853 25.6492C39.2075 25.5858 39.6694 25.4486 39.9058 25.343C40.1421 25.2479 40.5288 24.9945 40.7544 24.7939C40.9907 24.5933 41.3129 24.2237 41.4848 23.9597C41.6567 23.6958 41.7856 23.4424 41.7856 23.379C41.7856 23.3156 41.3666 23.2734 40.7329 23.2734C39.8306 23.2734 39.6372 23.3051 39.315 23.5057C39.1109 23.643 38.7671 23.7802 38.563 23.8119C38.3589 23.8542 38.0045 23.8225 37.7789 23.7591C37.564 23.6958 37.231 23.5163 37.0377 23.3579C36.8551 23.1889 36.6403 22.9038 36.5543 22.7243C36.4791 22.5343 36.4147 22.1964 36.4147 21.9852C36.4147 21.7635 36.5221 21.3728 36.651 21.1194C36.8229 20.792 37.0377 20.5809 37.3814 20.4014C37.65 20.2641 38.0474 20.1585 38.2623 20.1585C38.4878 20.1585 38.8423 20.243 39.0679 20.3486C39.2827 20.4436 39.5728 20.6759 39.7124 20.8448C39.8521 21.0243 40.0132 21.225 40.0669 21.2989C40.1421 21.3834 40.4858 21.4256 41.0874 21.4256H42.0004C41.893 20.8976 41.7533 20.5281 41.6244 20.2641C41.4955 20.0001 41.1088 19.5355 40.7758 19.2399C40.3032 18.7964 40.0239 18.638 39.4546 18.4691C39.0464 18.3529 38.5093 18.2579 38.2408 18.2685C37.9722 18.2685 37.5748 18.3213 37.36 18.374C37.1344 18.4268 36.7584 18.5641 36.5221 18.6803ZM3.73814 34.9199C3.57702 35.0783 3.49108 35.279 3.49108 35.5324C3.49108 35.8069 3.56627 35.9758 3.79185 36.1659C3.95298 36.3032 4.21078 36.4193 4.38265 36.4193C4.576 36.4193 7.14329 34.9727 12.3531 31.9212C16.5746 29.4504 20.1516 27.3069 20.302 27.1697C20.4846 26.9902 20.5705 26.8001 20.5705 26.5572C20.5705 26.3179 20.481 26.1067 20.302 25.9237C20.1086 25.7231 19.926 25.6492 19.6575 25.6492C19.3567 25.6492 17.724 26.5678 11.6334 30.1684C7.42258 32.6498 3.87779 34.7827 3.73814 34.9199ZM28.9706 34.2653C28.8847 34.3814 26.1026 38.0454 22.7833 42.4168C19.4641 46.7777 16.7035 50.4627 16.639 50.6C16.5746 50.7267 16.5531 50.959 16.5853 51.128C16.6176 51.2863 16.7465 51.5081 16.8646 51.6242C16.9935 51.7509 17.2191 51.8354 17.4554 51.8354C17.7132 51.8354 17.928 51.7509 18.1429 51.5503C18.3148 51.3814 21.1828 47.6646 24.502 43.2826C29.2821 36.9789 30.5604 35.2367 30.5926 34.9411C30.6248 34.6665 30.5711 34.4976 30.3885 34.2864C30.2489 34.128 30.0126 33.9802 29.8622 33.9485C29.7118 33.9168 29.4862 33.938 29.3573 33.9802C29.2284 34.033 29.0565 34.1597 28.9706 34.2653Z" fill="#2684E5"/>
</svg>
