<svg width="47" height="43" viewBox="0 0 47 43" fill="none" xmlns="http://www.w3.org/2000/svg">
<path fill-rule="evenodd" clip-rule="evenodd" d="M14.7328 0.0183043L42.7309 0L43.4653 0.2105C43.8692 0.329478 44.4108 0.54913 44.6586 0.686413C44.9157 0.832847 45.3563 1.18978 45.65 1.48265C45.9346 1.77552 46.2926 2.25143 46.4395 2.5443C46.5864 2.82802 46.77 3.31308 46.8526 3.61511C46.9811 4.10017 46.9995 5.23504 46.9995 13.0418C46.9995 21.4161 46.9811 21.9469 46.825 22.4228C46.7332 22.6974 46.5496 23.1458 46.412 23.4112C46.2834 23.6675 45.9254 24.1343 45.6225 24.4363C45.3196 24.7383 44.833 25.1044 44.5393 25.2508C44.2547 25.3973 43.7866 25.5803 43.5112 25.6627C43.2266 25.745 42.685 25.8091 41.4916 25.8091V33.9545L41.2621 34.1833C41.1336 34.3206 40.9317 34.4122 40.7848 34.4122C40.6471 34.4213 40.4268 34.3389 40.2983 34.2474C40.1698 34.1467 39.518 33.4695 37.6362 31.3919V22.3954C37.6362 17.0596 37.5994 13.0784 37.5444 12.6025C37.4893 12.1632 37.3791 11.5866 37.2873 11.3212C37.1955 11.065 36.9936 10.6074 36.8467 10.3236C36.6998 10.0308 36.3969 9.58232 36.1766 9.31691C35.9471 9.05149 35.5524 8.65795 35.3045 8.4383C35.0475 8.21865 34.5059 7.88002 34.102 7.67867C33.6981 7.48647 33.083 7.26682 32.725 7.18445C32.1743 7.07463 30.5495 7.04717 10.8774 7.04717L10.9416 5.473C10.9875 4.26491 11.0426 3.75239 11.1895 3.29478C11.2905 2.9653 11.5291 2.45278 11.7311 2.15076C11.9239 1.84874 12.2911 1.41859 12.5389 1.19893C12.7868 0.988434 13.1539 0.723021 13.3559 0.613195C13.5578 0.512521 13.9526 0.33863 14.228 0.219652L14.7328 0.0183043ZM18.3129 8.62134C30.2649 8.61219 31.9631 8.62134 32.4496 8.74947C32.7526 8.82269 33.2299 8.99658 33.5053 9.13386C33.7807 9.27115 34.2856 9.64639 34.6161 9.97586C34.9465 10.3053 35.3229 10.7813 35.4514 11.0284C35.5799 11.2846 35.7635 11.7148 35.8553 11.9893C36.0205 12.4744 36.0297 12.9137 36.0297 21.4618C36.0297 30.0008 36.0205 30.4584 35.8553 30.9801C35.7635 31.2821 35.5707 31.7397 35.4239 31.9868C35.2862 32.2431 34.9282 32.6915 34.6344 32.9844C34.3407 33.2773 33.8909 33.6342 33.643 33.7623C33.386 33.8905 32.9545 34.0827 32.6791 34.1742C32.1926 34.3481 31.8713 34.3572 18.3588 34.4122L14.8063 38.3293C12.851 40.48 11.0793 42.4203 10.859 42.6308C10.5194 42.9603 10.4184 43.0152 10.1246 42.9969C9.88597 42.9786 9.7391 42.9054 9.6014 42.7132C9.41781 42.4661 9.40863 42.3562 9.36273 34.4122H6.71898C4.61683 34.4122 3.97426 34.3847 3.53363 34.2657C3.2307 34.1925 2.75336 34.0095 2.47797 33.8722C2.20258 33.7349 1.72523 33.3688 1.4223 33.0759C1.11937 32.7739 0.743005 32.2797 0.586951 31.9868C0.421716 31.6848 0.228943 31.1723 0.146326 30.8428C0.0178101 30.3211 -0.000549316 29.2137 -0.000549316 21.3703C-0.000549316 12.6849 -0.000549316 12.4836 0.183044 11.9893C0.284021 11.7148 0.458435 11.3212 0.568591 11.1199C0.669568 10.9185 0.90824 10.5708 1.09183 10.3511C1.27543 10.1223 1.67015 9.76536 1.97308 9.54571C2.27601 9.32606 2.75336 9.06065 3.02875 8.95997C3.30414 8.8593 3.79984 8.74032 4.13031 8.70371C4.46078 8.6671 10.8407 8.62134 18.3129 8.62134ZM7.21468 16.7668C7.13207 16.8857 7.06781 17.0963 7.06781 17.2335C7.06781 17.38 7.16879 17.5813 7.2973 17.7094L7.52679 17.9382C17.0094 17.9382 18.3496 17.9108 18.469 17.8284C18.5516 17.7644 18.6618 17.5905 18.726 17.4349C18.7994 17.2244 18.7995 17.1054 18.7077 16.9041C18.6434 16.7576 18.4782 16.5837 18.3405 16.5105C18.1293 16.4098 17.1012 16.3915 12.9245 16.3915C10.0787 16.3915 7.66449 16.4373 7.56351 16.4739C7.45336 16.5197 7.2973 16.6478 7.21468 16.7668ZM7.2514 21.4069C7.15043 21.5351 7.05863 21.7547 7.05863 21.8737C7.05863 22.0018 7.14125 22.2215 7.2514 22.3587L7.435 22.6059C24.7662 22.6059 28.5207 22.5784 28.6401 22.5143C28.7411 22.4686 28.8604 22.3038 28.9155 22.1482C28.9889 21.9469 28.9705 21.8005 28.8696 21.5534C28.7594 21.3062 28.6584 21.2147 28.3922 21.1507C28.1719 21.0866 24.3899 21.0591 17.9457 21.0683C12.392 21.0774 7.75629 21.0957 7.64613 21.1232C7.53597 21.1415 7.35238 21.2696 7.2514 21.4069ZM7.2973 26.0379C7.16879 26.1752 7.07699 26.3765 7.06781 26.5413C7.06781 26.706 7.15961 26.9165 7.28812 27.0721L7.50844 27.3192C24.7295 27.365 28.1536 27.3467 28.3922 27.2826C28.6493 27.2094 28.7594 27.1087 28.8696 26.8616C28.943 26.6877 28.9797 26.4772 28.9522 26.3857C28.9155 26.2942 28.8053 26.1294 28.6952 26.0196L28.5024 25.8091H7.51761L7.2973 26.0379Z" fill="#2684E5"/>
</svg>
