<svg width="19" height="12" viewBox="0 0 19 12" fill="none" xmlns="http://www.w3.org/2000/svg">
<path fill-rule="evenodd" clip-rule="evenodd" d="M2.66596 0.736137H0.680681C0.113453 0.736137 0 1.00065 0 1.29223C0 1.8131 0.673059 4.39632 3.13387 7.81283C4.77441 10.146 7.08576 11.4108 9.18905 11.4108C10.451 11.4108 10.6071 11.1299 10.6071 10.6461V8.88261C10.6071 8.32078 10.7267 8.20864 11.1262 8.20864C11.4207 8.20864 11.9255 8.35449 13.1033 9.47943C14.4495 10.8127 14.6714 11.4108 15.4285 11.4108H17.4138C17.981 11.4108 18.2646 11.1299 18.101 10.5756C17.922 10.0231 17.2793 9.22139 16.4265 8.27117C15.9638 7.72952 15.2697 7.14623 15.0594 6.85453C14.7649 6.47957 14.849 6.31287 15.0594 5.9796C15.0594 5.9796 17.4781 2.60471 17.7305 1.45898C17.8567 1.04228 17.7305 0.736137 17.1302 0.736137H15.1449C14.6401 0.736137 14.4074 1.00065 14.2811 1.29223C14.2811 1.29223 13.2716 3.72966 11.8414 5.31294C11.3786 5.77122 11.1683 5.91707 10.9159 5.91707C10.7897 5.91707 10.6071 5.77122 10.6071 5.35462V1.45898C10.6071 0.958957 10.4606 0.736137 10.0399 0.736137H6.92011C6.6047 0.736137 6.41495 0.968171 6.41495 1.18813C6.41495 1.66208 7.13005 1.77141 7.20377 3.10468V6.00044C7.20377 6.6353 7.08797 6.75042 6.83562 6.75042C6.16259 6.75042 4.52545 4.3021 3.55448 1.50061C3.36422 0.956092 3.17333 0.736137 2.66596 0.736137Z" fill="#989898"/>
</svg>
