<svg width="19" height="19" viewBox="0 0 19 19" fill="none" xmlns="http://www.w3.org/2000/svg">
<path fill-rule="evenodd" clip-rule="evenodd" d="M15.6498 2.63702C13.9442 0.937358 11.6756 0.000862334 9.25856 0C4.27798 0 0.224524 4.03357 0.222791 8.99156C0.221924 10.5765 0.638274 12.1235 1.42895 13.4869L0.146973 18.147L4.93694 16.8966C6.2566 17.6132 7.74264 17.9904 9.25468 17.9909H9.25856C14.2383 17.9909 18.2922 13.9569 18.2939 8.99888C18.2948 6.59602 17.3559 4.33711 15.6498 2.63745V2.63702ZM9.25856 16.4723H9.25554C7.90813 16.4719 6.58632 16.1114 5.43303 15.4306L5.15877 15.2685L2.31624 16.0105L3.07485 13.2523L2.89635 12.9695C2.14467 11.7795 1.74738 10.404 1.74825 8.99201C1.74998 4.87133 5.11891 1.51857 9.26164 1.51857C11.2675 1.51943 13.1531 2.29769 14.571 3.71063C15.9891 5.12314 16.7693 7.00131 16.7685 8.99803C16.7667 13.1191 13.3978 16.4719 9.25856 16.4719V16.4723ZM13.3779 10.8749C13.1521 10.7624 12.0422 10.2191 11.8351 10.1441C11.628 10.069 11.4777 10.0316 11.3273 10.2566C11.177 10.4817 10.7442 10.9879 10.6125 11.1375C10.4808 11.2875 10.349 11.3061 10.1233 11.1935C9.89764 11.081 9.1702 10.8439 8.30761 10.0785C7.63653 9.48264 7.18331 8.7471 7.05164 8.522C6.91992 8.29696 7.03778 8.17535 7.15039 8.06368C7.25176 7.9628 7.37612 7.80111 7.48918 7.67003C7.6023 7.53894 7.63955 7.44498 7.71491 7.29534C7.79032 7.14529 7.75262 7.01426 7.69631 6.90168C7.63995 6.78916 7.18855 5.68319 7.00007 5.2335C6.81679 4.79544 6.63053 4.85495 6.49231 4.84762C6.36059 4.84115 6.21028 4.83986 6.0595 4.83986C5.90873 4.83986 5.66435 4.89591 5.45728 5.12098C5.2502 5.34602 4.66703 5.88973 4.66703 6.99524C4.66703 8.10076 5.47593 9.16965 5.58899 9.3197C5.70206 9.46975 7.18114 11.739 9.44573 12.7125C9.98429 12.9441 10.4049 13.0825 10.7329 13.186C11.2736 13.3571 11.7658 13.333 12.1548 13.2752C12.5885 13.2105 13.4905 12.7315 13.6786 12.2068C13.8666 11.682 13.8666 11.2319 13.8103 11.1383C13.754 11.0448 13.6032 10.9883 13.3775 10.8758L13.3779 10.8749Z" fill="#989898"/>
</svg>
