<svg width="97" height="24" viewBox="0 0 97 24" fill="none" xmlns="http://www.w3.org/2000/svg">
<path d="M5.22 0.499998L8.91 9.74L12.63 0.53H17.31L11.07 14.9V23H6.78V14.9L0.48 0.499998H5.22ZM15.552 15.47C15.552 14.43 15.752 13.44 16.152 12.5C16.552 11.56 17.102 10.74 17.802 10.04C18.522 9.32 19.362 8.76 20.322 8.36C21.282 7.96 22.282 7.76 23.322 7.76C24.362 7.76 25.352 7.96 26.292 8.36C27.232 8.76 28.052 9.32 28.752 10.04C29.472 10.74 30.032 11.56 30.432 12.5C30.832 13.44 31.032 14.43 31.032 15.47C31.032 16.51 30.832 17.51 30.432 18.47C30.032 19.43 29.472 20.27 28.752 20.99C28.052 21.69 27.232 22.24 26.292 22.64C25.352 23.04 24.362 23.24 23.322 23.24C22.282 23.24 21.282 23.04 20.322 22.64C19.362 22.24 18.522 21.69 17.802 20.99C17.102 20.27 16.552 19.43 16.152 18.47C15.752 17.51 15.552 16.51 15.552 15.47ZM19.662 15.47C19.662 16.49 20.012 17.36 20.712 18.08C21.432 18.78 22.302 19.13 23.322 19.13C24.322 19.13 25.172 18.78 25.872 18.08C26.592 17.36 26.952 16.49 26.952 15.47C26.952 15.01 26.832 14.5 26.592 13.94C26.352 13.36 25.922 12.87 25.302 12.47C24.702 12.05 24.042 11.84 23.322 11.84C22.302 11.84 21.432 12.2 20.712 12.92C20.012 13.62 19.662 14.47 19.662 15.47ZM39.9729 23.24C37.8529 23.24 36.2029 22.66 35.0229 21.5C33.8629 20.34 33.2829 18.71 33.2829 16.61V8H37.3629V16.55C37.3629 17.25 37.6229 17.86 38.1429 18.38C38.6629 18.9 39.2729 19.16 39.9729 19.16C40.6729 19.16 41.2829 18.93 41.8029 18.47C42.3229 17.99 42.5829 17.41 42.5829 16.73V8H46.6629V23H42.8529V22.43C42.5529 22.65 42.1329 22.84 41.5929 23C41.0529 23.16 40.5129 23.24 39.9729 23.24Z" fill="#2684E5"/>
<path d="M68.2976 2.72L65.6576 6.14C65.0376 5.64 64.3276 5.25 63.5276 4.97C62.7476 4.69 61.9476 4.55 61.1276 4.55C60.1276 4.59 59.1876 4.8 58.3076 5.18C57.4276 5.56 56.6576 6.08 55.9976 6.74C55.3376 7.38 54.8276 8.14 54.4676 9.02C54.1076 9.88 53.9276 10.79 53.9276 11.75C53.9276 12.47 54.0576 13.22 54.3176 14C54.5776 14.78 55.0176 15.53 55.6376 16.25C56.2576 16.95 57.0376 17.56 57.9776 18.08C58.9176 18.58 59.9676 18.87 61.1276 18.95C61.7476 18.95 62.4576 18.84 63.2576 18.62C64.0776 18.4 64.8776 17.98 65.6576 17.36L68.2976 20.78C67.9976 21.08 67.5276 21.42 66.8876 21.8C66.2476 22.18 65.4276 22.52 64.4276 22.82C63.4476 23.1 62.3476 23.24 61.1276 23.24C59.5876 23.24 58.1076 22.95 56.6876 22.37C55.2876 21.77 54.0576 20.94 52.9976 19.88C51.9376 18.82 51.1076 17.59 50.5076 16.19C49.9276 14.77 49.6376 13.29 49.6376 11.75C49.6376 10.21 49.9276 8.74 50.5076 7.34C51.1076 5.92 51.9376 4.68 52.9976 3.62C54.0576 2.56 55.2876 1.74 56.6876 1.16C58.1076 0.559999 59.5876 0.26 61.1276 0.26C61.6476 0.26 62.2076 0.3 62.8076 0.38C63.4076 0.439999 63.9776 0.559999 64.5176 0.739999C65.0576 0.899999 65.5176 1.07 65.8976 1.25C66.2976 1.41 66.6276 1.58 66.8876 1.76C67.1676 1.92 67.3876 2.06 67.5476 2.18C67.7076 2.28 67.8276 2.37 67.9076 2.45C68.0076 2.51 68.0876 2.57 68.1476 2.63C68.2276 2.67 68.2776 2.7 68.2976 2.72ZM77.6313 7.76C78.3113 7.76 79.0113 7.87 79.7313 8.09C80.4713 8.29 81.1213 8.56 81.6813 8.9V8H85.4013V23H81.6813V22.13C81.1213 22.47 80.4813 22.74 79.7613 22.94C79.0413 23.14 78.3313 23.24 77.6313 23.24C76.6113 23.24 75.6213 23.04 74.6613 22.64C73.7213 22.22 72.8913 21.66 72.1713 20.96C71.4713 20.24 70.9113 19.41 70.4913 18.47C70.0913 17.51 69.8913 16.52 69.8913 15.5C69.8913 14.48 70.0913 13.5 70.4913 12.56C70.9113 11.6 71.4713 10.77 72.1713 10.07C72.8913 9.35 73.7213 8.79 74.6613 8.39C75.6213 7.97 76.6113 7.76 77.6313 7.76ZM77.6313 11.78C76.5913 11.78 75.7113 12.14 74.9913 12.86C74.2913 13.58 73.9413 14.46 73.9413 15.5C73.9413 16.54 74.2913 17.42 74.9913 18.14C75.7113 18.86 76.5913 19.22 77.6313 19.22C78.6713 19.22 79.5413 18.86 80.2413 18.14C80.9613 17.42 81.3213 16.54 81.3213 15.5C81.3213 14.46 80.9613 13.58 80.2413 12.86C79.5413 12.14 78.6713 11.78 77.6313 11.78ZM88.0388 8H91.8488V8.66C92.1688 8.38 92.5988 8.16 93.1388 8C93.6988 7.84 94.2388 7.76 94.7588 7.76C95.6588 7.76 96.3588 7.85 96.8588 8.03V11.87H94.7288C94.4088 11.87 94.0488 11.95 93.6488 12.11C93.2488 12.25 92.8988 12.52 92.5988 12.92C92.3188 13.32 92.1588 13.77 92.1188 14.27V23H88.0388V8Z" fill="#293843"/>
</svg>
